<svg width="466" height="134" viewBox="0 0 466 134" fill="none" xmlns="http://www.w3.org/2000/svg">
<path d="M1.09977 21.72C1.09977 17.56 1.95977 13.86 3.67977 10.62C5.43977 7.34 7.91977 4.8 11.1198 3C14.3198 1.16 17.9998 0.24 22.1598 0.24C27.4398 0.24 31.8798 1.66 35.4798 4.5C39.0798 7.3 41.3998 11.12 42.4398 15.96H29.7798C29.0198 14.36 27.9598 13.14 26.5998 12.3C25.2798 11.46 23.7398 11.04 21.9798 11.04C19.2598 11.04 17.0798 12.02 15.4398 13.98C13.8398 15.9 13.0398 18.48 13.0398 21.72C13.0398 25 13.8398 27.62 15.4398 29.58C17.0798 31.5 19.2598 32.46 21.9798 32.46C23.7398 32.46 25.2798 32.04 26.5998 31.2C27.9598 30.36 29.0198 29.14 29.7798 27.54H42.4398C41.3998 32.38 39.0798 36.22 35.4798 39.06C31.8798 41.86 27.4398 43.26 22.1598 43.26C17.9998 43.26 14.3198 42.36 11.1198 40.56C7.91977 38.72 5.43977 36.18 3.67977 32.94C1.95977 29.66 1.09977 25.92 1.09977 21.72ZM68.2885 43.38C64.3285 43.38 60.6885 42.46 57.3685 40.62C54.0485 38.74 51.4085 36.16 49.4485 32.88C47.5285 29.56 46.5685 25.82 46.5685 21.66C46.5685 17.5 47.5285 13.78 49.4485 10.5C51.4085 7.18 54.0485 4.6 57.3685 2.76C60.6885 0.92 64.3285 0 68.2885 0C72.2885 0 75.9285 0.92 79.2085 2.76C82.5285 4.6 85.1485 7.18 87.0685 10.5C88.9885 13.78 89.9485 17.5 89.9485 21.66C89.9485 25.82 88.9885 29.56 87.0685 32.88C85.1485 36.16 82.5285 38.74 79.2085 40.62C75.8885 42.46 72.2485 43.38 68.2885 43.38ZM68.2885 32.46C71.2885 32.46 73.6485 31.48 75.3685 29.52C77.1285 27.56 78.0085 24.94 78.0085 21.66C78.0085 18.3 77.1285 15.66 75.3685 13.74C73.6485 11.78 71.2885 10.8 68.2885 10.8C65.2485 10.8 62.8685 11.78 61.1485 13.74C59.4285 15.66 58.5685 18.3 58.5685 21.66C58.5685 24.98 59.4285 27.62 61.1485 29.58C62.8685 31.5 65.2485 32.46 68.2885 32.46ZM106.995 33.96H120.135V42.96H95.2351V0.659999H106.995V33.96ZM151.468 36.06H136.468L134.188 42.96H121.828L137.248 0.659999H150.808L166.168 42.96H153.748L151.468 36.06ZM148.528 27.06L143.968 13.38L139.468 27.06H148.528ZM197.001 21.24C199.481 21.8 201.441 23.04 202.881 24.96C204.361 26.84 205.101 29 205.101 31.44C205.101 35.04 203.861 37.86 201.381 39.9C198.901 41.94 195.421 42.96 190.941 42.96H170.001V0.659999H190.281C194.601 0.659999 197.981 1.62 200.421 3.54C202.901 5.46 204.141 8.16 204.141 11.64C204.141 14.12 203.481 16.2 202.161 17.88C200.881 19.52 199.161 20.64 197.001 21.24ZM181.761 17.46H187.701C190.661 17.46 192.141 16.24 192.141 13.8C192.141 11.28 190.661 10.02 187.701 10.02H181.761V17.46ZM188.601 33.48C191.561 33.48 193.041 32.24 193.041 29.76C193.041 28.48 192.641 27.5 191.841 26.82C191.081 26.14 189.981 25.8 188.541 25.8H181.761V33.48H188.601ZM230.535 43.38C226.575 43.38 222.935 42.46 219.615 40.62C216.295 38.74 213.655 36.16 211.695 32.88C209.775 29.56 208.815 25.82 208.815 21.66C208.815 17.5 209.775 13.78 211.695 10.5C213.655 7.18 216.295 4.6 219.615 2.76C222.935 0.92 226.575 0 230.535 0C234.535 0 238.175 0.92 241.455 2.76C244.775 4.6 247.395 7.18 249.315 10.5C251.235 13.78 252.195 17.5 252.195 21.66C252.195 25.82 251.235 29.56 249.315 32.88C247.395 36.16 244.775 38.74 241.455 40.62C238.135 42.46 234.495 43.38 230.535 43.38ZM230.535 32.46C233.535 32.46 235.895 31.48 237.615 29.52C239.375 27.56 240.255 24.94 240.255 21.66C240.255 18.3 239.375 15.66 237.615 13.74C235.895 11.78 233.535 10.8 230.535 10.8C227.495 10.8 225.115 11.78 223.395 13.74C221.675 15.66 220.815 18.3 220.815 21.66C220.815 24.98 221.675 27.62 223.395 29.58C225.115 31.5 227.495 32.46 230.535 32.46ZM278.901 42.96L270.501 27.36H269.241V42.96H257.481V0.659999H276.021C279.421 0.659999 282.301 1.26 284.661 2.46C287.021 3.62 288.801 5.24 290.001 7.32C291.201 9.36 291.801 11.66 291.801 14.22C291.801 17.1 291.001 19.64 289.401 21.84C287.841 24 285.541 25.54 282.501 26.46L292.041 42.96H278.901ZM269.241 19.32H275.061C276.661 19.32 277.861 18.94 278.661 18.18C279.461 17.42 279.861 16.32 279.861 14.88C279.861 13.52 279.441 12.46 278.601 11.7C277.801 10.9 276.621 10.5 275.061 10.5H269.241V19.32ZM308.909 10.08V16.98H322.409V25.92H308.909V33.54H324.209V42.96H297.149V0.659999H324.209V10.08H308.909ZM379.4 0.659999V42.96H367.64V19.62L359.66 42.96H349.82L341.78 19.44V42.96H330.02V0.659999H344.24L354.86 28.14L365.24 0.659999H379.4ZM406.374 43.38C402.414 43.38 398.774 42.46 395.454 40.62C392.134 38.74 389.494 36.16 387.534 32.88C385.614 29.56 384.654 25.82 384.654 21.66C384.654 17.5 385.614 13.78 387.534 10.5C389.494 7.18 392.134 4.6 395.454 2.76C398.774 0.92 402.414 0 406.374 0C410.374 0 414.014 0.92 417.294 2.76C420.614 4.6 423.234 7.18 425.154 10.5C427.074 13.78 428.034 17.5 428.034 21.66C428.034 25.82 427.074 29.56 425.154 32.88C423.234 36.16 420.614 38.74 417.294 40.62C413.974 42.46 410.334 43.38 406.374 43.38ZM406.374 32.46C409.374 32.46 411.734 31.48 413.454 29.52C415.214 27.56 416.094 24.94 416.094 21.66C416.094 18.3 415.214 15.66 413.454 13.74C411.734 11.78 409.374 10.8 406.374 10.8C403.334 10.8 400.954 11.78 399.234 13.74C397.514 15.66 396.654 18.3 396.654 21.66C396.654 24.98 397.514 27.62 399.234 29.58C400.954 31.5 403.334 32.46 406.374 32.46ZM449.281 43.38C444.361 43.38 440.321 42.22 437.161 39.9C434.001 37.54 432.301 34.18 432.061 29.82H444.601C444.721 31.3 445.161 32.38 445.921 33.06C446.681 33.74 447.661 34.08 448.861 34.08C449.941 34.08 450.821 33.82 451.501 33.3C452.221 32.74 452.581 31.98 452.581 31.02C452.581 29.78 452.001 28.82 450.841 28.14C449.681 27.46 447.801 26.7 445.201 25.86C442.441 24.94 440.201 24.06 438.481 23.22C436.801 22.34 435.321 21.08 434.041 19.44C432.801 17.76 432.181 15.58 432.181 12.9C432.181 10.18 432.861 7.86 434.221 5.94C435.581 3.98 437.461 2.5 439.861 1.5C442.261 0.5 444.981 0 448.021 0C452.941 0 456.861 1.16 459.781 3.48C462.741 5.76 464.321 8.98 464.521 13.14H451.741C451.701 11.86 451.301 10.9 450.541 10.26C449.821 9.62 448.881 9.3 447.721 9.3C446.841 9.3 446.121 9.56 445.561 10.08C445.001 10.6 444.721 11.34 444.721 12.3C444.721 13.1 445.021 13.8 445.621 14.4C446.261 14.96 447.041 15.46 447.961 15.9C448.881 16.3 450.241 16.82 452.041 17.46C454.721 18.38 456.921 19.3 458.641 20.22C460.401 21.1 461.901 22.36 463.141 24C464.421 25.6 465.061 27.64 465.061 30.12C465.061 32.64 464.421 34.9 463.141 36.9C461.901 38.9 460.081 40.48 457.681 41.64C455.321 42.8 452.521 43.38 449.281 43.38ZM30.5598 90.66V118.68C30.5598 123.44 29.2598 127.08 26.6598 129.6C24.0998 132.12 20.5598 133.38 16.0398 133.38C11.2398 133.38 7.39977 132.04 4.51977 129.36C1.67977 126.68 0.259766 122.82 0.259766 117.78H11.8998C11.9398 121.1 13.1598 122.76 15.5598 122.76C17.7198 122.76 18.7998 121.4 18.7998 118.68V90.66H30.5598ZM49.0988 90.66V115.2C49.0988 117.48 49.6188 119.24 50.6588 120.48C51.7388 121.72 53.3588 122.34 55.5188 122.34C57.6788 122.34 59.2988 121.72 60.3788 120.48C61.4988 119.2 62.0588 117.44 62.0588 115.2V90.66H73.8188V115.2C73.8188 119.08 72.9988 122.4 71.3588 125.16C69.7188 127.88 67.4788 129.94 64.6388 131.34C61.8388 132.7 58.7188 133.38 55.2788 133.38C51.8388 133.38 48.7588 132.7 46.0388 131.34C43.3588 129.94 41.2388 127.88 39.6788 125.16C38.1588 122.44 37.3988 119.12 37.3988 115.2V90.66H49.0988ZM119.474 132.96H107.714L92.0537 109.32V132.96H80.2937V90.66H92.0537L107.714 114.6V90.66H119.474V132.96ZM158.033 90.66V100.02H146.753V132.96H134.993V100.02H123.833V90.66H158.033ZM182.664 133.38C178.704 133.38 175.064 132.46 171.744 130.62C168.424 128.74 165.784 126.16 163.824 122.88C161.904 119.56 160.944 115.82 160.944 111.66C160.944 107.5 161.904 103.78 163.824 100.5C165.784 97.18 168.424 94.6 171.744 92.76C175.064 90.92 178.704 90 182.664 90C186.664 90 190.304 90.92 193.584 92.76C196.904 94.6 199.524 97.18 201.444 100.5C203.364 103.78 204.324 107.5 204.324 111.66C204.324 115.82 203.364 119.56 201.444 122.88C199.524 126.16 196.904 128.74 193.584 130.62C190.264 132.46 186.624 133.38 182.664 133.38ZM182.664 122.46C185.664 122.46 188.024 121.48 189.744 119.52C191.504 117.56 192.384 114.94 192.384 111.66C192.384 108.3 191.504 105.66 189.744 103.74C188.024 101.78 185.664 100.8 182.664 100.8C179.624 100.8 177.244 101.78 175.524 103.74C173.804 105.66 172.944 108.3 172.944 111.66C172.944 114.98 173.804 117.62 175.524 119.58C177.244 121.5 179.624 122.46 182.664 122.46ZM225.57 133.38C220.65 133.38 216.61 132.22 213.45 129.9C210.29 127.54 208.59 124.18 208.35 119.82H220.89C221.01 121.3 221.45 122.38 222.21 123.06C222.97 123.74 223.95 124.08 225.15 124.08C226.23 124.08 227.11 123.82 227.79 123.3C228.51 122.74 228.87 121.98 228.87 121.02C228.87 119.78 228.29 118.82 227.13 118.14C225.97 117.46 224.09 116.7 221.49 115.86C218.73 114.94 216.49 114.06 214.77 113.22C213.09 112.34 211.61 111.08 210.33 109.44C209.09 107.76 208.47 105.58 208.47 102.9C208.47 100.18 209.15 97.86 210.51 95.94C211.87 93.98 213.75 92.5 216.15 91.5C218.55 90.5 221.27 90 224.31 90C229.23 90 233.15 91.16 236.07 93.48C239.03 95.76 240.61 98.98 240.81 103.14H228.03C227.99 101.86 227.59 100.9 226.83 100.26C226.11 99.62 225.17 99.3 224.01 99.3C223.13 99.3 222.41 99.56 221.85 100.08C221.29 100.6 221.01 101.34 221.01 102.3C221.01 103.1 221.31 103.8 221.91 104.4C222.55 104.96 223.33 105.46 224.25 105.9C225.17 106.3 226.53 106.82 228.33 107.46C231.01 108.38 233.21 109.3 234.93 110.22C236.69 111.1 238.19 112.36 239.43 114C240.71 115.6 241.35 117.64 241.35 120.12C241.35 122.64 240.71 124.9 239.43 126.9C238.19 128.9 236.37 130.48 233.97 131.64C231.61 132.8 228.81 133.38 225.57 133.38ZM252.517 133.44C250.437 133.44 248.757 132.88 247.477 131.76C246.237 130.6 245.617 129.14 245.617 127.38C245.617 125.62 246.237 124.16 247.477 123C248.757 121.84 250.437 121.26 252.517 121.26C254.557 121.26 256.197 121.84 257.437 123C258.717 124.16 259.357 125.62 259.357 127.38C259.357 129.1 258.717 130.54 257.437 131.7C256.197 132.86 254.557 133.44 252.517 133.44Z" fill="#EF5350"/>
</svg>
