<svg width="379" height="44" viewBox="0 0 379 44" fill="none" xmlns="http://www.w3.org/2000/svg">
<path d="M33.7799 14.8C33.7799 17.36 33.1799 19.7 31.9799 21.82C30.8199 23.9 29.0399 25.58 26.6399 26.86C24.2799 28.1 21.3799 28.72 17.9399 28.72H12.1199V43H0.359863V0.700007H17.9399C21.3399 0.700007 24.2199 1.30001 26.5799 2.50001C28.9799 3.70001 30.7799 5.36001 31.9799 7.48001C33.1799 9.60001 33.7799 12.04 33.7799 14.8ZM16.7999 19.36C20.1199 19.36 21.7799 17.84 21.7799 14.8C21.7799 11.72 20.1199 10.18 16.7999 10.18H12.1199V19.36H16.7999ZM59.9244 43L51.5244 27.4H50.2644V43H38.5044V0.700007H57.0444C60.4444 0.700007 63.3244 1.30001 65.6844 2.50001C68.0444 3.66001 69.8244 5.28001 71.0244 7.36001C72.2244 9.40001 72.8244 11.7 72.8244 14.26C72.8244 17.14 72.0244 19.68 70.4244 21.88C68.8644 24.04 66.5644 25.58 63.5244 26.5L73.0644 43H59.9244ZM50.2644 19.36H56.0844C57.6844 19.36 58.8844 18.98 59.6844 18.22C60.4844 17.46 60.8844 16.36 60.8844 14.92C60.8844 13.56 60.4644 12.5 59.6244 11.74C58.8244 10.94 57.6444 10.54 56.0844 10.54H50.2644V19.36ZM98.4524 43.42C94.4924 43.42 90.8524 42.5 87.5324 40.66C84.2124 38.78 81.5724 36.2 79.6124 32.92C77.6924 29.6 76.7324 25.86 76.7324 21.7C76.7324 17.54 77.6924 13.82 79.6124 10.54C81.5724 7.22001 84.2124 4.64001 87.5324 2.80001C90.8524 0.960009 94.4924 0.0400085 98.4524 0.0400085C102.452 0.0400085 106.092 0.960009 109.372 2.80001C112.692 4.64001 115.312 7.22001 117.232 10.54C119.152 13.82 120.112 17.54 120.112 21.7C120.112 25.86 119.152 29.6 117.232 32.92C115.312 36.2 112.692 38.78 109.372 40.66C106.052 42.5 102.412 43.42 98.4524 43.42ZM98.4524 32.5C101.452 32.5 103.812 31.52 105.532 29.56C107.292 27.6 108.172 24.98 108.172 21.7C108.172 18.34 107.292 15.7 105.532 13.78C103.812 11.82 101.452 10.84 98.4524 10.84C95.4124 10.84 93.0324 11.82 91.3124 13.78C89.5924 15.7 88.7324 18.34 88.7324 21.7C88.7324 25.02 89.5924 27.66 91.3124 29.62C93.0324 31.54 95.4124 32.5 98.4524 32.5ZM163.859 0.700007L148.979 29.56V43H137.159V29.56L122.279 0.700007H135.719L143.159 17.02L150.599 0.700007H163.859ZM179.229 10.12V17.02H192.729V25.96H179.229V33.58H194.529V43H167.469V0.700007H194.529V10.12H179.229ZM198.9 21.76C198.9 17.6 199.76 13.9 201.48 10.66C203.24 7.38001 205.72 4.84001 208.92 3.04001C212.12 1.20001 215.8 0.280009 219.96 0.280009C225.24 0.280009 229.68 1.70001 233.28 4.54001C236.88 7.34001 239.2 11.16 240.24 16H227.58C226.82 14.4 225.76 13.18 224.4 12.34C223.08 11.5 221.54 11.08 219.78 11.08C217.06 11.08 214.88 12.06 213.24 14.02C211.64 15.94 210.84 18.52 210.84 21.76C210.84 25.04 211.64 27.66 213.24 29.62C214.88 31.54 217.06 32.5 219.78 32.5C221.54 32.5 223.08 32.08 224.4 31.24C225.76 30.4 226.82 29.18 227.58 27.58H240.24C239.2 32.42 236.88 36.26 233.28 39.1C229.68 41.9 225.24 43.3 219.96 43.3C215.8 43.3 212.12 42.4 208.92 40.6C205.72 38.76 203.24 36.22 201.48 32.98C199.76 29.7 198.9 25.96 198.9 21.76ZM277.669 0.700007V10.06H266.389V43H254.629V10.06H243.469V0.700007H277.669ZM302.3 43.42C298.34 43.42 294.7 42.5 291.38 40.66C288.06 38.78 285.42 36.2 283.46 32.92C281.54 29.6 280.58 25.86 280.58 21.7C280.58 17.54 281.54 13.82 283.46 10.54C285.42 7.22001 288.06 4.64001 291.38 2.80001C294.7 0.960009 298.34 0.0400085 302.3 0.0400085C306.3 0.0400085 309.94 0.960009 313.22 2.80001C316.54 4.64001 319.16 7.22001 321.08 10.54C323 13.82 323.96 17.54 323.96 21.7C323.96 25.86 323 29.6 321.08 32.92C319.16 36.2 316.54 38.78 313.22 40.66C309.9 42.5 306.26 43.42 302.3 43.42ZM302.3 32.5C305.3 32.5 307.66 31.52 309.38 29.56C311.14 27.6 312.02 24.98 312.02 21.7C312.02 18.34 311.14 15.7 309.38 13.78C307.66 11.82 305.3 10.84 302.3 10.84C299.26 10.84 296.88 11.82 295.16 13.78C293.44 15.7 292.58 18.34 292.58 21.7C292.58 25.02 293.44 27.66 295.16 29.62C296.88 31.54 299.26 32.5 302.3 32.5ZM345.207 43.42C340.287 43.42 336.247 42.26 333.087 39.94C329.927 37.58 328.227 34.22 327.987 29.86H340.527C340.647 31.34 341.087 32.42 341.847 33.1C342.607 33.78 343.587 34.12 344.787 34.12C345.867 34.12 346.747 33.86 347.427 33.34C348.147 32.78 348.507 32.02 348.507 31.06C348.507 29.82 347.927 28.86 346.767 28.18C345.607 27.5 343.727 26.74 341.127 25.9C338.367 24.98 336.127 24.1 334.407 23.26C332.727 22.38 331.247 21.12 329.967 19.48C328.727 17.8 328.107 15.62 328.107 12.94C328.107 10.22 328.787 7.90001 330.147 5.98001C331.507 4.02001 333.387 2.54001 335.787 1.54001C338.187 0.540008 340.907 0.0400085 343.947 0.0400085C348.867 0.0400085 352.787 1.20001 355.707 3.52001C358.667 5.80001 360.247 9.02001 360.447 13.18H347.667C347.627 11.9 347.227 10.94 346.467 10.3C345.747 9.66001 344.807 9.34001 343.647 9.34001C342.767 9.34001 342.047 9.60001 341.487 10.12C340.927 10.64 340.647 11.38 340.647 12.34C340.647 13.14 340.947 13.84 341.547 14.44C342.187 15 342.967 15.5 343.887 15.94C344.807 16.34 346.167 16.86 347.967 17.5C350.647 18.42 352.847 19.34 354.567 20.26C356.327 21.14 357.827 22.4 359.067 24.04C360.347 25.64 360.987 27.68 360.987 30.16C360.987 32.68 360.347 34.94 359.067 36.94C357.827 38.94 356.007 40.52 353.607 41.68C351.247 42.84 348.447 43.42 345.207 43.42ZM372.154 43.48C370.074 43.48 368.394 42.92 367.114 41.8C365.874 40.64 365.254 39.18 365.254 37.42C365.254 35.66 365.874 34.2 367.114 33.04C368.394 31.88 370.074 31.3 372.154 31.3C374.194 31.3 375.834 31.88 377.074 33.04C378.354 34.2 378.994 35.66 378.994 37.42C378.994 39.14 378.354 40.58 377.074 41.74C375.834 42.9 374.194 43.48 372.154 43.48Z" fill="#EF5350"/>
</svg>
