<svg width="211" height="134" viewBox="0 0 211 134" fill="none" xmlns="http://www.w3.org/2000/svg">
<path d="M34.4002 0.659988V10.02H23.1202V42.96H11.3602V10.02H0.200195V0.659988H34.4002ZM50.5111 10.08V16.98H64.0111V25.92H50.5111V33.54H65.8111V42.96H38.7511V0.659988H65.8111V10.08H50.5111ZM70.1822 21.72C70.1822 17.56 71.0422 13.86 72.7622 10.62C74.5222 7.33999 77.0022 4.79999 80.2022 2.99999C83.4022 1.15999 87.0822 0.23999 91.2422 0.23999C96.5222 0.23999 100.962 1.65999 104.562 4.49999C108.162 7.29999 110.482 11.12 111.522 15.96H98.8622C98.1022 14.36 97.0422 13.14 95.6822 12.3C94.3622 11.46 92.8222 11.04 91.0622 11.04C88.3422 11.04 86.1622 12.02 84.5222 13.98C82.9222 15.9 82.1222 18.48 82.1222 21.72C82.1222 25 82.9222 27.62 84.5222 29.58C86.1622 31.5 88.3422 32.46 91.0622 32.46C92.8222 32.46 94.3622 32.04 95.6822 31.2C97.0422 30.36 98.1022 29.14 98.8622 27.54H111.522C110.482 32.38 108.162 36.22 104.562 39.06C100.962 41.86 96.5222 43.26 91.2422 43.26C87.0822 43.26 83.4022 42.36 80.2022 40.56C77.0022 38.72 74.5222 36.18 72.7622 32.94C71.0422 29.66 70.1822 25.92 70.1822 21.72ZM154.951 0.659988V42.96H143.191V25.98H128.851V42.96H117.091V0.659988H128.851V16.56H143.191V0.659988H154.951ZM18.5002 133.38C13.5802 133.38 9.5402 132.22 6.3802 129.9C3.2202 127.54 1.5202 124.18 1.2802 119.82H13.8202C13.9402 121.3 14.3802 122.38 15.1402 123.06C15.9002 123.74 16.8802 124.08 18.0802 124.08C19.1602 124.08 20.0402 123.82 20.7202 123.3C21.4402 122.74 21.8002 121.98 21.8002 121.02C21.8002 119.78 21.2202 118.82 20.0602 118.14C18.9002 117.46 17.0202 116.7 14.4202 115.86C11.6602 114.94 9.4202 114.06 7.7002 113.22C6.0202 112.34 4.5402 111.08 3.2602 109.44C2.0202 107.76 1.4002 105.58 1.4002 102.9C1.4002 100.18 2.0802 97.86 3.4402 95.94C4.8002 93.98 6.6802 92.5 9.0802 91.5C11.4802 90.5 14.2002 90 17.2402 90C22.1602 90 26.0802 91.16 29.0002 93.48C31.9602 95.76 33.5402 98.98 33.7402 103.14H20.9602C20.9202 101.86 20.5202 100.9 19.7602 100.26C19.0402 99.62 18.1002 99.3 16.9402 99.3C16.0602 99.3 15.3402 99.56 14.7802 100.08C14.2202 100.6 13.9402 101.34 13.9402 102.3C13.9402 103.1 14.2402 103.8 14.8402 104.4C15.4802 104.96 16.2602 105.46 17.1802 105.9C18.1002 106.3 19.4602 106.82 21.2602 107.46C23.9402 108.38 26.1402 109.3 27.8602 110.22C29.6202 111.1 31.1202 112.36 32.3602 114C33.6402 115.6 34.2802 117.64 34.2802 120.12C34.2802 122.64 33.6402 124.9 32.3602 126.9C31.1202 128.9 29.3002 130.48 26.9002 131.64C24.5402 132.8 21.7402 133.38 18.5002 133.38ZM64.7672 132.96L51.5072 114.42V132.96H39.7472V90.66H51.5072V108.9L64.6472 90.66H78.2072L62.6672 111.18L78.9872 132.96H64.7672ZM95.0424 90.66V132.96H83.2824V90.66H95.0424ZM113.499 123.96H126.639V132.96H101.739V90.66H113.499V123.96ZM142.972 123.96H156.112V132.96H131.212V90.66H142.972V123.96ZM176.645 133.38C171.725 133.38 167.685 132.22 164.525 129.9C161.365 127.54 159.665 124.18 159.425 119.82H171.965C172.085 121.3 172.525 122.38 173.285 123.06C174.045 123.74 175.025 124.08 176.225 124.08C177.305 124.08 178.185 123.82 178.865 123.3C179.585 122.74 179.945 121.98 179.945 121.02C179.945 119.78 179.365 118.82 178.205 118.14C177.045 117.46 175.165 116.7 172.565 115.86C169.805 114.94 167.565 114.06 165.845 113.22C164.165 112.34 162.685 111.08 161.405 109.44C160.165 107.76 159.545 105.58 159.545 102.9C159.545 100.18 160.225 97.86 161.585 95.94C162.945 93.98 164.825 92.5 167.225 91.5C169.625 90.5 172.345 90 175.385 90C180.305 90 184.225 91.16 187.145 93.48C190.105 95.76 191.685 98.98 191.885 103.14H179.105C179.065 101.86 178.665 100.9 177.905 100.26C177.185 99.62 176.245 99.3 175.085 99.3C174.205 99.3 173.485 99.56 172.925 100.08C172.365 100.6 172.085 101.34 172.085 102.3C172.085 103.1 172.385 103.8 172.985 104.4C173.625 104.96 174.405 105.46 175.325 105.9C176.245 106.3 177.605 106.82 179.405 107.46C182.085 108.38 184.285 109.3 186.005 110.22C187.765 111.1 189.265 112.36 190.505 114C191.785 115.6 192.425 117.64 192.425 120.12C192.425 122.64 191.785 124.9 190.505 126.9C189.265 128.9 187.445 130.48 185.045 131.64C182.685 132.8 179.885 133.38 176.645 133.38ZM203.592 133.44C201.512 133.44 199.832 132.88 198.552 131.76C197.312 130.6 196.692 129.14 196.692 127.38C196.692 125.62 197.312 124.16 198.552 123C199.832 121.84 201.512 121.26 203.592 121.26C205.632 121.26 207.272 121.84 208.512 123C209.792 124.16 210.432 125.62 210.432 127.38C210.432 129.1 209.792 130.54 208.512 131.7C207.272 132.86 205.632 133.44 203.592 133.44Z" fill="#EF5350"/>
</svg>
