<svg width="258" height="134" viewBox="0 0 258 134" fill="none" xmlns="http://www.w3.org/2000/svg">
<path d="M10.9 8.52C12.94 8.52 14.58 9.1 15.82 10.26C17.1 11.42 17.74 12.86 17.74 14.58C17.74 16.34 17.1 17.8 15.82 18.96C14.58 20.12 12.94 20.7 10.9 20.7C8.81998 20.7 7.13998 20.12 5.85998 18.96C4.61998 17.8 3.99998 16.34 3.99998 14.58C3.99998 12.82 4.61998 11.38 5.85998 10.26C7.13998 9.1 8.81998 8.52 10.9 8.52ZM5.85998 24.84H15.88L17.26 53.46H4.47998L5.85998 24.84ZM76.2911 0.659999V42.96H64.5311V19.62L56.5511 42.96H46.7111L38.6711 19.44V42.96H26.9111V0.659999H41.1311L51.7511 28.14L62.1311 0.659999H76.2911ZM94.5053 0.659999V25.2C94.5053 27.48 95.0253 29.24 96.0653 30.48C97.1453 31.72 98.7653 32.34 100.925 32.34C103.085 32.34 104.705 31.72 105.785 30.48C106.905 29.2 107.465 27.44 107.465 25.2V0.659999H119.225V25.2C119.225 29.08 118.405 32.4 116.765 35.16C115.125 37.88 112.885 39.94 110.045 41.34C107.245 42.7 104.125 43.38 100.685 43.38C97.2453 43.38 94.1653 42.7 91.4453 41.34C88.7653 39.94 86.6453 37.88 85.0853 35.16C83.5653 32.44 82.8053 29.12 82.8053 25.2V0.659999H94.5053ZM124.26 21.72C124.26 17.56 125.12 13.86 126.84 10.62C128.6 7.34 131.08 4.8 134.28 3C137.48 1.16 141.16 0.24 145.32 0.24C150.6 0.24 155.04 1.66 158.64 4.5C162.24 7.3 164.56 11.12 165.6 15.96H152.94C152.18 14.36 151.12 13.14 149.76 12.3C148.44 11.46 146.9 11.04 145.14 11.04C142.42 11.04 140.24 12.02 138.6 13.98C137 15.9 136.2 18.48 136.2 21.72C136.2 25 137 27.62 138.6 29.58C140.24 31.5 142.42 32.46 145.14 32.46C146.9 32.46 148.44 32.04 149.76 31.2C151.12 30.36 152.18 29.14 152.94 27.54H165.6C164.56 32.38 162.24 36.22 158.64 39.06C155.04 41.86 150.6 43.26 145.32 43.26C141.16 43.26 137.48 42.36 134.28 40.56C131.08 38.72 128.6 36.18 126.84 32.94C125.12 29.66 124.26 25.92 124.26 21.72ZM209.029 0.659999V42.96H197.269V25.98H182.929V42.96H171.169V0.659999H182.929V16.56H197.269V0.659999H209.029ZM236.039 43.38C232.079 43.38 228.439 42.46 225.119 40.62C221.799 38.74 219.159 36.16 217.199 32.88C215.279 29.56 214.319 25.82 214.319 21.66C214.319 17.5 215.279 13.78 217.199 10.5C219.159 7.18 221.799 4.6 225.119 2.76C228.439 0.92 232.079 0 236.039 0C240.039 0 243.679 0.92 246.959 2.76C250.279 4.6 252.899 7.18 254.819 10.5C256.739 13.78 257.699 17.5 257.699 21.66C257.699 25.82 256.739 29.56 254.819 32.88C252.899 36.16 250.279 38.74 246.959 40.62C243.639 42.46 239.999 43.38 236.039 43.38ZM236.039 32.46C239.039 32.46 241.399 31.48 243.119 29.52C244.879 27.56 245.759 24.94 245.759 21.66C245.759 18.3 244.879 15.66 243.119 13.74C241.399 11.78 239.039 10.8 236.039 10.8C232.999 10.8 230.619 11.78 228.899 13.74C227.179 15.66 226.319 18.3 226.319 21.66C226.319 24.98 227.179 27.62 228.899 29.58C230.619 31.5 232.999 32.46 236.039 32.46ZM28.54 104.58C27.86 103.46 26.92 102.6 25.72 102C24.56 101.4 23.18 101.1 21.58 101.1C18.62 101.1 16.28 102.06 14.56 103.98C12.88 105.9 12.04 108.48 12.04 111.72C12.04 115.36 12.94 118.14 14.74 120.06C16.58 121.94 19.24 122.88 22.72 122.88C26.84 122.88 29.78 121.02 31.54 117.3H19.72V108.84H41.68V120.24C40.76 122.48 39.4 124.58 37.6 126.54C35.84 128.5 33.6 130.12 30.88 131.4C28.16 132.64 25.06 133.26 21.58 133.26C17.34 133.26 13.58 132.36 10.3 130.56C7.05998 128.72 4.53998 126.18 2.73998 122.94C0.979976 119.66 0.0999756 115.92 0.0999756 111.72C0.0999756 107.56 0.979976 103.86 2.73998 100.62C4.53998 97.34 7.05998 94.8 10.3 93C13.54 91.16 17.28 90.24 21.52 90.24C26.84 90.24 31.24 91.52 34.72 94.08C38.2 96.64 40.36 100.14 41.2 104.58H28.54ZM58.4701 90.66V115.2C58.4701 117.48 58.9901 119.24 60.0301 120.48C61.1101 121.72 62.7301 122.34 64.8901 122.34C67.0501 122.34 68.6701 121.72 69.7501 120.48C70.8701 119.2 71.4301 117.44 71.4301 115.2V90.66H83.1901V115.2C83.1901 119.08 82.3701 122.4 80.7301 125.16C79.0901 127.88 76.8501 129.94 74.0101 131.34C71.2101 132.7 68.0901 133.38 64.6501 133.38C61.2101 133.38 58.1301 132.7 55.4101 131.34C52.7301 129.94 50.6101 127.88 49.0501 125.16C47.5301 122.44 46.7701 119.12 46.7701 115.2V90.66H58.4701ZM105.625 133.38C100.705 133.38 96.665 132.22 93.505 129.9C90.345 127.54 88.645 124.18 88.405 119.82H100.945C101.065 121.3 101.505 122.38 102.265 123.06C103.025 123.74 104.005 124.08 105.205 124.08C106.285 124.08 107.165 123.82 107.845 123.3C108.565 122.74 108.925 121.98 108.925 121.02C108.925 119.78 108.345 118.82 107.185 118.14C106.025 117.46 104.145 116.7 101.545 115.86C98.785 114.94 96.545 114.06 94.825 113.22C93.145 112.34 91.665 111.08 90.385 109.44C89.145 107.76 88.525 105.58 88.525 102.9C88.525 100.18 89.205 97.86 90.565 95.94C91.925 93.98 93.805 92.5 96.205 91.5C98.605 90.5 101.325 90 104.365 90C109.285 90 113.205 91.16 116.125 93.48C119.085 95.76 120.665 98.98 120.865 103.14H108.085C108.045 101.86 107.645 100.9 106.885 100.26C106.165 99.62 105.225 99.3 104.065 99.3C103.185 99.3 102.465 99.56 101.905 100.08C101.345 100.6 101.065 101.34 101.065 102.3C101.065 103.1 101.365 103.8 101.965 104.4C102.605 104.96 103.385 105.46 104.305 105.9C105.225 106.3 106.585 106.82 108.385 107.46C111.065 108.38 113.265 109.3 114.985 110.22C116.745 111.1 118.245 112.36 119.485 114C120.765 115.6 121.405 117.64 121.405 120.12C121.405 122.64 120.765 124.9 119.485 126.9C118.245 128.9 116.425 130.48 114.025 131.64C111.665 132.8 108.865 133.38 105.625 133.38ZM158.732 90.66V100.02H147.452V132.96H135.692V100.02H124.532V90.66H158.732ZM183.363 133.38C179.403 133.38 175.763 132.46 172.443 130.62C169.123 128.74 166.483 126.16 164.523 122.88C162.603 119.56 161.643 115.82 161.643 111.66C161.643 107.5 162.603 103.78 164.523 100.5C166.483 97.18 169.123 94.6 172.443 92.76C175.763 90.92 179.403 90 183.363 90C187.363 90 191.003 90.92 194.283 92.76C197.603 94.6 200.223 97.18 202.143 100.5C204.063 103.78 205.023 107.5 205.023 111.66C205.023 115.82 204.063 119.56 202.143 122.88C200.223 126.16 197.603 128.74 194.283 130.62C190.963 132.46 187.323 133.38 183.363 133.38ZM183.363 122.46C186.363 122.46 188.723 121.48 190.443 119.52C192.203 117.56 193.083 114.94 193.083 111.66C193.083 108.3 192.203 105.66 190.443 103.74C188.723 101.78 186.363 100.8 183.363 100.8C180.323 100.8 177.943 101.78 176.223 103.74C174.503 105.66 173.643 108.3 173.643 111.66C173.643 114.98 174.503 117.62 176.223 119.58C177.943 121.5 180.323 122.46 183.363 122.46ZM226.03 88.5L224.65 117.12H214.63L213.25 88.5H226.03ZM219.67 133.44C217.59 133.44 215.91 132.88 214.63 131.76C213.39 130.6 212.77 129.14 212.77 127.38C212.77 125.62 213.39 124.16 214.63 123C215.91 121.84 217.59 121.26 219.67 121.26C221.71 121.26 223.35 121.84 224.59 123C225.87 124.16 226.51 125.62 226.51 127.38C226.51 129.1 225.87 130.54 224.59 131.7C223.35 132.86 221.71 133.44 219.67 133.44Z" fill="#EF5350"/>
</svg>
