<svg width="371" height="314" viewBox="0 0 371 314" fill="none" xmlns="http://www.w3.org/2000/svg">
<path d="M39.22 0.699992V43H27.46V26.02H13.12V43H1.36001V0.699992H13.12V16.6H27.46V0.699992H39.22ZM66.2299 43.42C62.2699 43.42 58.6299 42.5 55.3098 40.66C51.9898 38.78 49.3498 36.2 47.3899 32.92C45.4698 29.6 44.5098 25.86 44.5098 21.7C44.5098 17.54 45.4698 13.82 47.3899 10.54C49.3498 7.21999 51.9898 4.63999 55.3098 2.79999C58.6299 0.959993 62.2699 0.0399933 66.2299 0.0399933C70.2299 0.0399933 73.8699 0.959993 77.1498 2.79999C80.4698 4.63999 83.0899 7.21999 85.0098 10.54C86.9299 13.82 87.8899 17.54 87.8899 21.7C87.8899 25.86 86.9299 29.6 85.0098 32.92C83.0899 36.2 80.4698 38.78 77.1498 40.66C73.8298 42.5 70.1898 43.42 66.2299 43.42ZM66.2299 32.5C69.2299 32.5 71.5899 31.52 73.3099 29.56C75.0699 27.6 75.9499 24.98 75.9499 21.7C75.9499 18.34 75.0699 15.7 73.3099 13.78C71.5899 11.82 69.2299 10.84 66.2299 10.84C63.1898 10.84 60.8099 11.82 59.0899 13.78C57.3699 15.7 56.5098 18.34 56.5098 21.7C56.5098 25.02 57.3699 27.66 59.0899 29.62C60.8099 31.54 63.1898 32.5 66.2299 32.5ZM104.936 34H118.076V43H93.1764V0.699992H104.936V34ZM149.409 36.1H134.409L132.129 43H119.769L135.189 0.699992H148.749L164.109 43H151.689L149.409 36.1ZM146.469 27.1L141.909 13.42L137.409 27.1H146.469ZM17.32 133.42C12.4 133.42 8.36001 132.26 5.20001 129.94C2.04001 127.58 0.340006 124.22 0.100006 119.86H12.64C12.76 121.34 13.2 122.42 13.96 123.1C14.72 123.78 15.7 124.12 16.9 124.12C17.98 124.12 18.86 123.86 19.54 123.34C20.26 122.78 20.62 122.02 20.62 121.06C20.62 119.82 20.04 118.86 18.88 118.18C17.72 117.5 15.84 116.74 13.24 115.9C10.48 114.98 8.24001 114.1 6.52001 113.26C4.84001 112.38 3.36001 111.12 2.08001 109.48C0.840006 107.8 0.220006 105.62 0.220006 102.94C0.220006 100.22 0.900006 97.9 2.26001 95.98C3.62001 94.02 5.50001 92.54 7.90001 91.54C10.3 90.54 13.02 90.04 16.06 90.04C20.98 90.04 24.9 91.2 27.82 93.52C30.78 95.8 32.36 99.02 32.56 103.18H19.78C19.74 101.9 19.34 100.94 18.58 100.3C17.86 99.66 16.92 99.34 15.76 99.34C14.88 99.34 14.16 99.6 13.6 100.12C13.04 100.64 12.76 101.38 12.76 102.34C12.76 103.14 13.06 103.84 13.66 104.44C14.3 105 15.08 105.5 16 105.94C16.92 106.34 18.28 106.86 20.08 107.5C22.76 108.42 24.96 109.34 26.68 110.26C28.44 111.14 29.94 112.4 31.18 114.04C32.46 115.64 33.1 117.68 33.1 120.16C33.1 122.68 32.46 124.94 31.18 126.94C29.94 128.94 28.12 130.52 25.72 131.68C23.36 132.84 20.56 133.42 17.32 133.42ZM58.847 133.42C54.887 133.42 51.247 132.5 47.927 130.66C44.607 128.78 41.967 126.2 40.007 122.92C38.087 119.6 37.127 115.86 37.127 111.7C37.127 107.54 38.087 103.82 40.007 100.54C41.967 97.22 44.607 94.64 47.927 92.8C51.247 90.96 54.887 90.04 58.847 90.04C62.847 90.04 66.487 90.96 69.767 92.8C73.087 94.64 75.707 97.22 77.627 100.54C79.547 103.82 80.507 107.54 80.507 111.7C80.507 115.86 79.547 119.6 77.627 122.92C75.707 126.2 73.087 128.78 69.767 130.66C66.447 132.5 62.807 133.42 58.847 133.42ZM58.847 122.5C61.847 122.5 64.207 121.52 65.927 119.56C67.687 117.6 68.567 114.98 68.567 111.7C68.567 108.34 67.687 105.7 65.927 103.78C64.207 101.82 61.847 100.84 58.847 100.84C55.807 100.84 53.427 101.82 51.707 103.78C49.987 105.7 49.127 108.34 49.127 111.7C49.127 115.02 49.987 117.66 51.707 119.62C53.427 121.54 55.807 122.5 58.847 122.5ZM124.254 90.7L109.374 119.56V133H97.5536V119.56L82.6736 90.7H96.1136L103.554 107.02L110.994 90.7H124.254ZM166.348 111.28C168.828 111.84 170.788 113.08 172.228 115C173.708 116.88 174.448 119.04 174.448 121.48C174.448 125.08 173.208 127.9 170.728 129.94C168.248 131.98 164.768 133 160.288 133H139.348V90.7H159.628C163.948 90.7 167.328 91.66 169.768 93.58C172.248 95.5 173.488 98.2 173.488 101.68C173.488 104.16 172.828 106.24 171.508 107.92C170.228 109.56 168.508 110.68 166.348 111.28ZM151.108 107.5H157.048C160.008 107.5 161.488 106.28 161.488 103.84C161.488 101.32 160.008 100.06 157.048 100.06H151.108V107.5ZM157.948 123.52C160.908 123.52 162.388 122.28 162.388 119.8C162.388 118.52 161.988 117.54 161.188 116.86C160.428 116.18 159.328 115.84 157.888 115.84H151.108V123.52H157.948ZM201.022 133L192.622 117.4H191.362V133H179.602V90.7H198.142C201.542 90.7 204.422 91.3 206.782 92.5C209.142 93.66 210.922 95.28 212.122 97.36C213.322 99.4 213.922 101.7 213.922 104.26C213.922 107.14 213.122 109.68 211.522 111.88C209.962 114.04 207.662 115.58 204.622 116.5L214.162 133H201.022ZM191.362 109.36H197.182C198.782 109.36 199.982 108.98 200.782 108.22C201.582 107.46 201.982 106.36 201.982 104.92C201.982 103.56 201.562 102.5 200.722 101.74C199.922 100.94 198.742 100.54 197.182 100.54H191.362V109.36ZM231.03 100.12V107.02H244.53V115.96H231.03V123.58H246.33V133H219.27V90.7H246.33V100.12H231.03ZM291.321 133H279.561L263.901 109.36V133H252.141V90.7H263.901L279.561 114.64V90.7H291.321V133ZM310.68 122.92L304.26 140.44H296.82L299.94 122.92H310.68ZM30.04 180.7V190.06H13.12V197.5H25.6V206.44H13.12V223H1.36001V180.7H30.04ZM56.4128 223L48.0128 207.4H46.7528V223H34.9928V180.7H53.5328C56.9328 180.7 59.8128 181.3 62.1728 182.5C64.5328 183.66 66.3128 185.28 67.5128 187.36C68.7128 189.4 69.3128 191.7 69.3128 194.26C69.3128 197.14 68.5128 199.68 66.9128 201.88C65.3528 204.04 63.0528 205.58 60.0128 206.5L69.5528 223H56.4128ZM46.7528 199.36H52.5728C54.1728 199.36 55.3728 198.98 56.1728 198.22C56.9728 197.46 57.3728 196.36 57.3728 194.92C57.3728 193.56 56.9528 192.5 56.1128 191.74C55.3128 190.94 54.1328 190.54 52.5728 190.54H46.7528V199.36ZM94.9408 223.42C90.9808 223.42 87.3408 222.5 84.0208 220.66C80.7008 218.78 78.0608 216.2 76.1008 212.92C74.1808 209.6 73.2208 205.86 73.2208 201.7C73.2208 197.54 74.1808 193.82 76.1008 190.54C78.0608 187.22 80.7008 184.64 84.0208 182.8C87.3408 180.96 90.9808 180.04 94.9408 180.04C98.9408 180.04 102.581 180.96 105.861 182.8C109.181 184.64 111.801 187.22 113.721 190.54C115.641 193.82 116.601 197.54 116.601 201.7C116.601 205.86 115.641 209.6 113.721 212.92C111.801 216.2 109.181 218.78 105.861 220.66C102.541 222.5 98.9008 223.42 94.9408 223.42ZM94.9408 212.5C97.9408 212.5 100.301 211.52 102.021 209.56C103.781 207.6 104.661 204.98 104.661 201.7C104.661 198.34 103.781 195.7 102.021 193.78C100.301 191.82 97.9408 190.84 94.9408 190.84C91.9008 190.84 89.5208 191.82 87.8008 193.78C86.0808 195.7 85.2208 198.34 85.2208 201.7C85.2208 205.02 86.0808 207.66 87.8008 209.62C89.5208 211.54 91.9008 212.5 94.9408 212.5ZM161.067 223H149.307L133.647 199.36V223H121.887V180.7H133.647L149.307 204.64V180.7H161.067V223ZM199.626 180.7V190.06H188.346V223H176.586V190.06H165.426V180.7H199.626ZM227.222 190.12V197.02H240.722V205.96H227.222V213.58H242.522V223H215.462V180.7H242.522V190.12H227.222ZM287.513 223H275.753L260.093 199.36V223H248.333V180.7H260.093L275.753 204.64V180.7H287.513V223ZM310.952 180.7C315.392 180.7 319.272 181.6 322.592 183.4C325.952 185.16 328.532 187.64 330.332 190.84C332.132 194.04 333.032 197.7 333.032 201.82C333.032 205.9 332.112 209.54 330.272 212.74C328.472 215.94 325.892 218.46 322.532 220.3C319.212 222.1 315.352 223 310.952 223H294.212V180.7H310.952ZM310.052 212.62C313.492 212.62 316.192 211.68 318.152 209.8C320.112 207.92 321.092 205.26 321.092 201.82C321.092 198.34 320.112 195.66 318.152 193.78C316.192 191.86 313.492 190.9 310.052 190.9H305.972V212.62H310.052ZM18.1 270.7C22.54 270.7 26.42 271.6 29.74 273.4C33.1 275.16 35.68 277.64 37.48 280.84C39.28 284.04 40.18 287.7 40.18 291.82C40.18 295.9 39.26 299.54 37.42 302.74C35.62 305.94 33.04 308.46 29.68 310.3C26.36 312.1 22.5 313 18.1 313H1.36001V270.7H18.1ZM17.2 302.62C20.64 302.62 23.34 301.68 25.3 299.8C27.26 297.92 28.24 295.26 28.24 291.82C28.24 288.34 27.26 285.66 25.3 283.78C23.34 281.86 20.64 280.9 17.2 280.9H13.12V302.62H17.2ZM57.2411 280.12V287.02H70.7411V295.96H57.2411V303.58H72.5411V313H45.4811V270.7H72.5411V280.12H57.2411ZM119.512 270.7L104.932 313H89.8722L75.2322 270.7H87.8322L97.4322 301.24L106.972 270.7H119.512ZM134.936 280.12V287.02H148.436V295.96H134.936V303.58H150.236V313H123.176V270.7H150.236V280.12H134.936ZM167.808 304H180.948V313H156.048V270.7H167.808V304ZM205.8 313.42C201.84 313.42 198.2 312.5 194.88 310.66C191.56 308.78 188.92 306.2 186.96 302.92C185.04 299.6 184.08 295.86 184.08 291.7C184.08 287.54 185.04 283.82 186.96 280.54C188.92 277.22 191.56 274.64 194.88 272.8C198.2 270.96 201.84 270.04 205.8 270.04C209.8 270.04 213.44 270.96 216.72 272.8C220.04 274.64 222.66 277.22 224.58 280.54C226.5 283.82 227.46 287.54 227.46 291.7C227.46 295.86 226.5 299.6 224.58 302.92C222.66 306.2 220.04 308.78 216.72 310.66C213.4 312.5 209.76 313.42 205.8 313.42ZM205.8 302.5C208.8 302.5 211.16 301.52 212.88 299.56C214.64 297.6 215.52 294.98 215.52 291.7C215.52 288.34 214.64 285.7 212.88 283.78C211.16 281.82 208.8 280.84 205.8 280.84C202.76 280.84 200.38 281.82 198.66 283.78C196.94 285.7 196.08 288.34 196.08 291.7C196.08 295.02 196.94 297.66 198.66 299.62C200.38 301.54 202.76 302.5 205.8 302.5ZM266.167 284.8C266.167 287.36 265.567 289.7 264.367 291.82C263.207 293.9 261.427 295.58 259.027 296.86C256.667 298.1 253.767 298.72 250.327 298.72H244.507V313H232.747V270.7H250.327C253.727 270.7 256.607 271.3 258.967 272.5C261.367 273.7 263.167 275.36 264.367 277.48C265.567 279.6 266.167 282.04 266.167 284.8ZM249.187 289.36C252.507 289.36 254.167 287.84 254.167 284.8C254.167 281.72 252.507 280.18 249.187 280.18H244.507V289.36H249.187ZM282.651 280.12V287.02H296.151V295.96H282.651V303.58H297.951V313H270.891V270.7H297.951V280.12H282.651ZM325.182 313L316.782 297.4H315.522V313H303.762V270.7H322.302C325.702 270.7 328.582 271.3 330.942 272.5C333.302 273.66 335.082 275.28 336.282 277.36C337.482 279.4 338.082 281.7 338.082 284.26C338.082 287.14 337.282 289.68 335.682 291.88C334.122 294.04 331.822 295.58 328.782 296.5L338.322 313H325.182ZM315.522 289.36H321.342C322.942 289.36 324.142 288.98 324.942 288.22C325.742 287.46 326.142 286.36 326.142 284.92C326.142 283.56 325.722 282.5 324.882 281.74C324.082 280.94 322.902 280.54 321.342 280.54H315.522V289.36Z" fill="black"/>
<circle cx="361" cy="303" r="10" fill="#EF5350"/>
</svg>
